<?xml version="1.0" encoding="UTF-8" standalone="no"?>
<!DOCTYPE svg PUBLIC "-//W3C//DTD SVG 1.1//EN"
 "http://www.w3.org/Graphics/SVG/1.1/DTD/svg11.dtd">
<!-- Generated by graphviz version 2.38.0 (20140413.2041)
 -->
<!-- Title: a_graph Pages: 1 -->
<svg width="129pt" height="119pt"
 viewBox="0.00 0.00 129.00 119.00" xmlns="http://www.w3.org/2000/svg" xmlns:xlink="http://www.w3.org/1999/xlink">
<g id="graph0" class="graph" transform="scale(1 1) rotate(0) translate(4 115)">
<title>a_graph</title>
<polygon fill="white" stroke="none" points="-4,4 -4,-115 125,-115 125,4 -4,4"/>
<!-- n0 -->
<g id="node1" class="node"><title>n0</title>
<polygon fill="none" stroke="#0058ad" points="-7.10543e-15,-81.5 -7.10543e-15,-110.5 121,-110.5 121,-81.5 -7.10543e-15,-81.5"/>
<text text-anchor="middle" x="28" y="-92.3" font-family="Times,serif" font-size="14.00" fill="#0058ad">a :x 1</text>
<polyline fill="none" stroke="#0058ad" points="56,-81.5 56,-110.5 "/>
<text text-anchor="middle" x="88.5" y="-92.3" font-family="Times,serif" font-size="14.00" fill="#0058ad">r :y [1]</text>
</g>
<!-- n1 -->
<g id="node2" class="node"><title>n1</title>
<polygon fill="none" stroke="#0058ad" points="1.5,-0.5 1.5,-29.5 113.5,-29.5 113.5,-0.5 1.5,-0.5"/>
<text text-anchor="middle" x="29.5" y="-11.3" font-family="Times,serif" font-size="14.00" fill="#0058ad">a :x 2</text>
<polyline fill="none" stroke="#0058ad" points="57.5,-0.5 57.5,-29.5 "/>
<text text-anchor="middle" x="85.5" y="-11.3" font-family="Times,serif" font-size="14.00" fill="#0058ad">a :y 1</text>
</g>
<!-- n0&#45;&gt;n1 -->
<g id="edge1" class="edge"><title>n0:f0&#45;&gt;n1:f0</title>
<path fill="none" stroke="#c02700" d="M27.5,-81C27.5,-62.2147 28.8716,-55.1238 29.3431,-40.3584"/>
<polygon fill="#c02700" stroke="#c02700" points="32.848,-40.0519 29.5,-30 25.8488,-39.9458 32.848,-40.0519"/>
<text text-anchor="middle" x="42" y="-51.8" font-family="Times,serif" font-size="14.00" fill="#c02700">ww</text>
</g>
<!-- n1&#45;&gt;n0 -->
<g id="edge2" class="edge"><title>n1:f1&#45;&gt;n0:f1</title>
<path fill="none" stroke="#c000a5" d="M85.5,-30C85.5,-48.8033 87.5574,-55.8675 88.2646,-70.6355"/>
<polygon fill="#c000a5" stroke="#c000a5" points="84.7737,-71.0821 88.5,-81 91.7719,-70.9231 84.7737,-71.0821"/>
<text text-anchor="middle" x="97" y="-51.8" font-family="Times,serif" font-size="14.00" fill="#c000a5">wr</text>
</g>
</g>
</svg>
